Coordinates
version=1
nRows=4
nColumns=63
inDegrees=yes

Units are S.I. units (second, meters, Newtons, ...)
If the header above contains a line with 'inDegrees', this indicates whether rotational values are in degrees (yes) or radians (no).

endheader
time	pelvis_tilt	pelvis_list	pelvis_rotation	pelvis_tx	pelvis_ty	pelvis_tz	hip_flexion_r	hip_adduction_r	hip_rotation_r	knee_angle_r	knee_angle_r_beta	ankle_angle_r	subtalar_angle_r	mtp_angle_r	hip_flexion_l	hip_adduction_l	hip_rotation_l	knee_angle_l	knee_angle_l_beta	ankle_angle_l	subtalar_angle_l	mtp_angle_l	L5_S1_Flex_Ext	L5_S1_Lat_Bending	L5_S1_axial_rotation	L4_L5_Flex_Ext	L4_L5_Lat_Bending	L4_L5_axial_rotation	L3_L4_Flex_Ext	L3_L4_Lat_Bending	L3_L4_axial_rotation	L2_L3_Flex_Ext	L2_L3_Lat_Bending	L2_L3_axial_rotation	L1_L2_Flex_Ext	L1_L2_Lat_Bending	L1_L2_axial_rotation	L1_T12_Flex_Ext	L1_T12_Lat_Bending	L1_T12_axial_rotation	Abs_r3	Abs_r2	Abs_r1	Abs_t1	Abs_t2	neck_flexion	neck_bending	neck_rotation	arm_flex_r	arm_add_r	arm_rot_r	elbow_flex_r	pro_sup_r	wrist_flex_r	wrist_dev_r	arm_flex_l	arm_add_l	arm_rot_l	elbow_flex_l	pro_sup_l	wrist_flex_l	wrist_dev_l
      7.50000000	    -39.80830147	     -4.85655647	     -2.81903853	     -0.15116287	      1.00587957	      0.04108296	    117.19712136	     -3.43208672	     -2.56190281	    108.73255107	      1.89774102	     15.48890867	    -10.77222798	      0.00000000	     77.32118734	    -10.96173694	      2.77869448	     60.13269899	      1.04951359	      1.49728116	     -4.15217165	      0.00000000	     -0.05809373	      1.04567735	      0.68626074	     -0.10788586	      1.39075088	      0.72915204	     -0.09544218	      2.54245991	      0.72915204	     -0.06639532	      2.54245991	      0.60047815	     -0.05394584	      2.13234526	      0.55758685	     -0.03319476	      1.61975422	      0.51469555	     -0.41495768	     11.82891134	      3.81677635	      0.00000000	      0.00000000	      0.00000000	      0.00000000	      0.00000000	     74.64482960	    -12.84801304	     41.90176119	     35.02299690	     58.08252168	      0.00000000	      5.00000014	     63.63059136	     -8.21313515	     13.82398968	     33.56578187	     60.68681161	      0.00000000	      5.00000014
      7.50800000	    -39.83348591	     -4.73145322	     -2.42678078	     -0.15174528	      1.00592845	      0.04124298	    116.87922418	     -3.51070742	     -2.35115670	    106.95360592	      1.86669257	     15.53775234	    -10.48737817	      0.00000000	     78.04308306	    -10.66744973	      3.17814780	     62.44957317	      1.08995067	      1.63180325	     -3.83556569	      0.00000000	     -0.05828425	      1.01364364	      0.61529859	     -0.10823968	      1.34814604	      0.65375475	     -0.09575519	      2.46457315	      0.65375475	     -0.06661307	      2.46457315	      0.53838627	     -0.05412275	      2.06702211	      0.49993011	     -0.03330362	      1.57013400	      0.46147394	     -0.41631856	     11.46653960	      3.42210618	      0.00000000	      0.00000000	      0.00000000	      0.00000000	      0.00000000	     74.61116576	    -12.84043542	     41.90438663	     35.14038256	     58.02313612	      0.00000000	      5.00000014	     63.80254505	     -8.21405780	     13.77773042	     33.62011219	     60.61866105	      0.00000000	      5.00000014
      7.51700000	    -39.90459094	     -5.07447515	     -2.28027788	     -0.15248597	      1.00617181	      0.04142787	    116.24677623	     -3.57115770	     -2.77120664	    104.85715487	      1.83010260	     15.74340602	    -10.19993700	      0.00000000	     79.03253251	    -10.75956846	      4.20563135	     64.89218684	      1.13258232	      2.06561440	     -1.95992995	      0.00000000	     -0.05989588	      1.04702022	      0.59827788	     -0.11123264	      1.39253689	      0.63567024	     -0.09840294	      2.54572496	      0.63567024	     -0.06845500	      2.54572496	      0.52349314	     -0.05561932	      2.13508363	      0.48610077	     -0.03422451	      1.62183432	      0.44870841	     -0.42783029	     11.84410212	      3.32744207	      0.00000000	      0.00000000	      0.00000000	      0.00000000	      0.00000000	     74.74029248	    -12.96678714	     41.99339857	     35.22382158	     58.03785614	      0.00000000	      5.00000014	     63.92893852	     -8.03720018	     13.54555049	     33.60680629	     60.68447578	      0.00000000	      5.00000014
      7.52500000	    -39.94060930	     -4.78533880	     -1.80606780	     -0.15320482	      1.00617118	      0.04154993	    115.77150021	     -3.64690765	     -2.32696942	    102.90636975	      1.79605497	     15.61870903	     -9.77793057	      0.00000000	     79.82905043	    -10.26973653	      4.51318696	     67.14949881	      1.17197985	      2.20276204	     -1.78076148	      0.00000000	     -0.05947262	      0.99508636	      0.51083603	     -0.11044660	      1.32346485	      0.54276329	     -0.09770756	      2.41945297	      0.54276329	     -0.06797125	      2.41945297	      0.44698153	     -0.05522627	      2.02918010	      0.41505428	     -0.03398265	      1.54138877	      0.38312703	     -0.42480696	     11.25661589	      2.84111677	      0.00000000	      0.00000000	      0.00000000	      0.00000000	      0.00000000	     74.65688424	    -12.94107880	     41.92579343	     35.37486685	     57.94319716	      0.00000000	      5.00000014	     64.10302917	     -8.12811957	     13.51258459	     33.67310265	     60.58740137	      0.00000000	      5.00000014
